<svg width="24" height="23" viewBox="0 0 24 23" fill="none" xmlns="http://www.w3.org/2000/svg">
<path d="M5.5 17.5L11.5 2.5L13.5 5L19 21H5.5V17.5Z" fill="white"/>
<path d="M23.5129 17.3477L15.0255 1.72247C14.3849 0.644064 13.2535 0 11.9991 0C10.7447 0 9.61335 0.644064 8.97276 1.72247C8.96793 1.73072 8.96385 1.73897 8.95902 1.74722L0.499755 17.323C-0.154574 18.4242 -0.166949 19.7466 0.466052 20.8601C1.10051 21.9742 2.24351 22.6389 3.5254 22.6389H20.4259C21.7078 22.6389 22.8978 21.9742 23.5322 20.8601C24.1652 19.7466 24.1529 18.4241 23.5129 17.3477ZM10.5914 7.1545C10.5914 6.37703 11.2217 5.74684 11.9991 5.74684C12.7766 5.74684 13.4068 6.37708 13.4068 7.1545V12.7852C13.4068 13.5626 12.7765 14.1928 11.9991 14.1928C11.2217 14.1928 10.5914 13.5625 10.5914 12.7852V7.1545ZM11.9991 19.8236C10.8348 19.8236 9.88757 18.8764 9.88757 17.712C9.88757 16.5477 10.8347 15.6005 11.9991 15.6005C13.1634 15.6005 14.1106 16.5477 14.1106 17.712C14.1106 18.8764 13.1635 19.8236 11.9991 19.8236Z" fill="#F74156"/>
</svg>
